<svg xmlns="http://www.w3.org/2000/svg" viewBox="0 0 800 1000" width="800" height="1000" role="img">
  <defs>
    <linearGradient id="bg" x1="0" y1="0" x2="0.3" y2="1">
      <stop offset="0" stop-color="#f2eee7"/><stop offset="1" stop-color="#dfd8ca"/>
    </linearGradient>
    <radialGradient id="glow" cx="0.34" cy="0.3" r="0.62">
      <stop offset="0" stop-color="#ffffff" stop-opacity="0.85"/>
      <stop offset="1" stop-color="#ffffff" stop-opacity="0"/>
    </radialGradient>
    <linearGradient id="metal" x1="0" y1="0" x2="1" y2="0">
      <stop offset="0" stop-color="#3a342d"/><stop offset="0.45" stop-color="#5c534a"/><stop offset="1" stop-color="#2c2721"/>
    </linearGradient>
    <linearGradient id="warm" x1="0" y1="0" x2="0" y2="1">
      <stop offset="0" stop-color="#ffd9a3"/><stop offset="1" stop-color="#e9a765"/>
    </linearGradient>
    <filter id="soft" x="-30%" y="-30%" width="160%" height="160%">
      <feGaussianBlur stdDeviation="26"/>
    </filter>
  </defs>
  <rect width="800" height="1000" fill="url(#bg)"/>
  <rect width="800" height="1000" fill="url(#glow)"/>
  <ellipse cx="400" cy="812" rx="230" ry="34" fill="#1c1a17" opacity="0.13" filter="url(#soft)"/>
  <circle cx="400" cy="470" r="184" fill="#ffffff" opacity="0.5" filter="url(#soft)"/>
  <circle cx="400" cy="470" r="168" fill="url(#metal)"/>
  <circle cx="400" cy="470" r="140" fill="#efe9df"/>
  <g stroke="#c3bab0" stroke-width="7" fill="none" stroke-linecap="round">
    <circle cx="400" cy="470" r="112"/><circle cx="400" cy="470" r="86"/>
    <circle cx="400" cy="470" r="60"/><circle cx="400" cy="470" r="34"/>
  </g>
  <circle cx="400" cy="470" r="13" fill="#b7714a"/>
  <rect x="352" y="672" width="96" height="14" rx="7" fill="#3a342d"/>
  <ellipse cx="400" cy="700" rx="150" ry="22" fill="#4a423a"/>
  <g opacity="0.42" stroke="#9a9084" stroke-width="4" fill="none" stroke-linecap="round">
    <path d="M596 400c34 26 34 114 0 140"/><path d="M640 366c56 44 56 182 0 226"/>
    <path d="M204 400c-34 26-34 114 0 140"/><path d="M160 366c-56 44-56 182 0 226"/>
  </g>
</svg>
